<svg width="512" height="512" viewBox="0 0 512 512" fill="none" xmlns="http://www.w3.org/2000/svg">
  <defs>
    <linearGradient id="bg" x1="64" y1="48" x2="448" y2="464" gradientUnits="userSpaceOnUse">
      <stop offset="0" stop-color="#123B8D" />
      <stop offset="0.55" stop-color="#1F56E4" />
      <stop offset="1" stop-color="#0E2A73" />
    </linearGradient>
    <linearGradient id="glow" x1="104" y1="76" x2="408" y2="420" gradientUnits="userSpaceOnUse">
      <stop offset="0" stop-color="#7DD3FC" stop-opacity="0.34" />
      <stop offset="0.52" stop-color="#60A5FA" stop-opacity="0.08" />
      <stop offset="1" stop-color="#FFFFFF" stop-opacity="0" />
    </linearGradient>
    <linearGradient id="glyph" x1="164" y1="138" x2="362" y2="376" gradientUnits="userSpaceOnUse">
      <stop offset="0" stop-color="#F8FBFF" />
      <stop offset="1" stop-color="#DCEBFF" />
    </linearGradient>
    <filter id="shadow" x="72" y="90" width="376" height="346" filterUnits="userSpaceOnUse" color-interpolation-filters="sRGB">
      <feOffset dy="14" />
      <feGaussianBlur stdDeviation="12" />
      <feColorMatrix type="matrix" values="0 0 0 0 0.0117647 0 0 0 0 0.0392157 0 0 0 0 0.121569 0 0 0 0.35 0" />
      <feBlend in2="SourceGraphic" result="shape" />
    </filter>
  </defs>

  <rect x="36" y="36" width="440" height="440" rx="112" fill="url(#bg)" />
  <rect x="36" y="36" width="440" height="440" rx="112" fill="url(#glow)" />
  <rect x="36" y="36" width="440" height="440" rx="112" stroke="#FFFFFF" stroke-opacity="0.18" stroke-width="2" />

  <g filter="url(#shadow)">
    <path
      d="M191 154C162 154 149 171 149 201V220C149 243 137 257 115 266C137 275 149 289 149 312V331C149 361 162 378 191 378"
      stroke="url(#glyph)"
      stroke-width="28"
      stroke-linecap="round"
      stroke-linejoin="round"
    />

    <path
      d="M253 170L221 346"
      stroke="url(#glyph)"
      stroke-width="30"
      stroke-linecap="round"
    />

    <path
      d="M316 144H376C386.493 144 395 152.507 395 163V257C395 275.53 387.95 293.366 375.279 306.914L346 338L316.721 306.914C304.05 293.366 297 275.53 297 257V163C297 152.507 305.507 144 316 144Z"
      fill="url(#glyph)"
    />
    <circle cx="346" cy="233" r="18" fill="#1C47BD" />
    <path d="M346 252V321" stroke="#1C47BD" stroke-width="14" stroke-linecap="round" />
  </g>
</svg>
